<svg width="18" height="19" viewBox="0 0 18 19" fill="none" xmlns="http://www.w3.org/2000/svg">
<path d="M11.9995 2.33333V6.5M11.9995 6.5L16.1662 6.5M11.9995 6.5L16.9995 1.5M8.02204 10.5526C7.02072 9.55124 6.23007 8.41904 5.65007 7.21102C5.60018 7.10712 5.57523 7.05516 5.55607 6.98942C5.48797 6.75579 5.53688 6.46891 5.67856 6.27105C5.71843 6.21537 5.76606 6.16774 5.86132 6.07248C6.15266 5.78115 6.29833 5.63548 6.39356 5.48899C6.75273 4.93659 6.75273 4.22443 6.39356 3.67203C6.29833 3.52554 6.15266 3.37988 5.86132 3.08854L5.69893 2.92615C5.25606 2.48328 5.03462 2.26184 4.79681 2.14156C4.32384 1.90233 3.76529 1.90233 3.29232 2.14156C3.0545 2.26184 2.83307 2.48328 2.3902 2.92615L2.25883 3.05751C1.81748 3.49886 1.59681 3.71954 1.42827 4.01956C1.24125 4.35249 1.10678 4.86956 1.10792 5.25141C1.10894 5.59554 1.17569 5.83072 1.3092 6.30109C2.02668 8.82892 3.3804 11.2142 5.37039 13.2042C7.36037 15.1942 9.74567 16.5479 12.2735 17.2654C12.7439 17.3989 12.9791 17.4657 13.3232 17.4667C13.705 17.4678 14.2221 17.3333 14.555 17.1463C14.8551 16.9778 15.0757 16.7571 15.5171 16.3158L15.6484 16.1844C16.0913 15.7415 16.3127 15.5201 16.433 15.2823C16.6723 14.8093 16.6723 14.2508 16.433 13.7778C16.3127 13.54 16.0913 13.3185 15.6484 12.8757L15.4861 12.7133C15.1947 12.4219 15.049 12.2763 14.9026 12.181C14.3502 11.8219 13.638 11.8219 13.0856 12.181C12.9391 12.2763 12.7934 12.4219 12.5021 12.7133C12.4068 12.8085 12.3592 12.8562 12.3035 12.896C12.1057 13.0377 11.8188 13.0866 11.5852 13.0185C11.5194 12.9994 11.4675 12.9744 11.3636 12.9245C10.1556 12.3445 9.02335 11.5539 8.02204 10.5526Z" stroke="#181818" stroke-width="1.5" stroke-linecap="round" stroke-linejoin="round"/>
</svg>
