<svg width="54" height="70" viewBox="0 0 54 70" fill="none" xmlns="http://www.w3.org/2000/svg">
<path d="M52.9482 2.74096C52.5408 1.88216 51.659 1.2702 49.6838 1.07479C40.5608 0.169703 36.2907 0 26.7914 0H26.7863C17.2817 0 13.1405 0.154275 3.87836 1.07479C1.89803 1.2702 1.01616 1.88216 0.608751 2.7461C0.309639 3.38378 0.268382 4.1603 0.227125 5.00368C-0.273114 15.3761 0.0311553 43.5983 1.41326 59.4784C1.57313 61.3142 1.6608 63.2633 1.92897 64.8781C2.33639 67.3208 3.35748 68.015 5.30171 68.4162C8.69508 69.1206 15.3631 69.6812 26.7706 69.6812C38.1783 69.6812 44.8618 69.1258 48.2604 68.4212C50.2045 68.0201 51.2257 67.331 51.6331 64.8832C51.9012 63.2684 51.9838 61.3194 52.1488 59.4836C53.5309 43.6035 53.8351 15.3813 53.3349 5.00882C53.2936 4.1603 53.2524 3.38378 52.9482 2.74096ZM2.61486 6.15046C2.67675 4.8751 2.48078 3.97002 3.51221 3.27064L18.5555 5.97561C19.0711 5.68249 26.5541 5.67735 26.7863 5.67735C27.0183 5.67735 34.5012 5.68249 35.0169 5.97561L49.9364 3.25007C50.973 3.94432 50.7976 4.8751 50.8596 6.15046C51.0142 9.3594 51.0864 14.3425 51.0762 20.1329L51.0709 20.2306L39.1323 21.0638C36.167 21.3415 35.8215 22.0975 35.8111 23.4602C35.8111 23.4602 35.672 32.799 35.5893 36.08C35.4759 40.7443 35.0736 47.6969 35.0685 47.9282C35.0323 49.0443 34.2795 49.8619 33.212 49.9493C33.212 49.9493 29.406 50.0882 26.7964 50.0625C26.7759 50.0625 26.7605 50.0625 26.7397 50.0625C26.7192 50.0625 26.7038 50.0625 26.6831 50.0625C24.0735 50.083 20.2675 49.9493 20.2675 49.9493C19.2001 49.8567 18.4421 49.0443 18.411 47.9282C18.4059 47.6969 18.0036 40.7443 17.8902 36.08C17.8077 32.799 17.6685 23.4602 17.6685 23.4602C17.6632 22.0975 17.3125 21.3415 14.3473 21.0638L2.39826 20.1175C2.38795 14.3322 2.46015 9.35425 2.61486 6.15046ZM26.7346 52.1142H26.7914L32.7426 52.0526C37.384 52.0783 36.9251 51.6824 37.544 47.6094C37.6986 46.5912 39.8491 23.671 39.8491 23.671C39.9213 23.1414 40.2153 22.9151 40.633 22.8637L50.7357 21.542C50.9214 21.5163 51.0864 21.6655 51.0813 21.8557C51.0813 21.8557 50.2561 59.787 49.1886 64.3998C48.9566 65.3923 48.6987 65.6238 47.8323 65.8294C47.8323 65.8294 42.7422 67.0276 26.745 67.0431C10.7373 67.0224 5.64723 65.8243 5.64723 65.8243C4.78085 65.6186 4.52299 65.3923 4.29092 64.3947C3.2234 59.787 2.39826 21.8557 2.39826 21.8557C2.3931 21.6706 2.55813 21.5215 2.74378 21.542L12.8466 22.8637C13.2643 22.9203 13.5582 23.1414 13.6304 23.671C13.6304 23.671 15.7809 46.5912 15.9357 47.6094C16.5545 51.6772 16.0954 52.0783 20.7369 52.0526L26.6882 52.1142H26.7346Z" fill="white"/>
</svg>
